<?xml version="1.0" encoding="UTF-8"?>
<svg width="518px" height="518px" viewBox="0 0 518 518" version="1.1" xmlns="http://www.w3.org/2000/svg" xmlns:xlink="http://www.w3.org/1999/xlink">
    <!-- Generator: Sketch 52.6 (67491) - http://www.bohemiancoding.com/sketch -->
    <title>language_switcher</title>
    <desc>Created with Sketch.</desc>
    <g id="Page-1" stroke="none" stroke-width="1" fill="none" fill-rule="evenodd">
        <g id="language_switcher" transform="translate(3.000000, 3.000000)" fill="#FFFFFF" fill-rule="nonzero" stroke="#FFFFFF" stroke-width="5">
            <path d="M256,0 C114.4409,0 0,114.4409 0,256 C0,397.5591 114.4409,512 256,512 C397.5591,512 512,397.5591 512,256 C512,114.4409 397.5591,0 256,0 Z M178.728834,34.8662577 C165.222086,53.8175869 153.704703,73.8159509 144.071984,94.7566462 L85.9615542,94.7566462 C111.299796,67.9525562 143.024949,47.2212679 178.728834,34.8662577 Z M67.6384458,116.534969 L134.858078,116.534969 C119.047853,157.264622 110.357464,200.716564 109.101022,245.110838 L22.0924335,245.110838 C24.2912065,197.051943 40.8343558,152.762372 67.6384458,116.534969 Z M67.6384458,395.465031 C40.8343558,359.237628 24.2912065,314.948057 22.0924335,266.889162 L109.101022,266.889162 C110.357464,311.283436 119.361963,354.735378 135.276892,395.465031 L67.6384458,395.465031 Z M85.9615542,417.243354 L144.595501,417.243354 C154.332924,438.184049 165.850307,458.39182 179.147648,477.343149 C143.339059,464.988139 111.404499,444.152147 85.9615542,417.243354 Z M245.110838,490.01227 C234.221677,489.488753 223.437219,488.232311 212.966871,486.347648 C195.586094,464.883436 180.7182,441.743967 168.677301,417.348057 L245.110838,417.348057 L245.110838,490.01227 Z M245.110838,395.465031 L158.73047,395.465031 C141.873211,354.840082 132.240491,311.388139 130.879346,266.889162 L245.110838,266.889162 L245.110838,395.465031 Z M245.110838,245.110838 L130.879346,245.110838 C132.240491,200.716564 141.768507,157.159918 158.521063,116.534969 L245.110838,116.534969 L245.110838,245.110838 Z M245.215542,94.7566462 L245.110838,94.7566462 L168.467894,94.7566462 C180.613497,70.1513292 195.481391,47.0118609 212.966871,25.7570552 C223.437219,23.7676892 234.221677,22.6159509 245.215542,22.0924335 L245.215542,94.7566462 Z M444.361554,116.534969 C471.165644,152.762372 487.813497,196.947239 489.907566,245.110838 L402.898978,245.110838 C401.642536,200.716564 392.638037,157.264622 376.723108,116.534969 L444.361554,116.534969 Z M426.038446,94.7566462 L367.404499,94.7566462 C357.667076,73.8159509 346.149693,53.60818 332.747648,34.6568507 C368.660941,47.0118609 400.595501,67.8478528 426.038446,94.7566462 Z M266.889162,22.0924335 C277.778323,22.6159509 288.562781,23.8723926 299.033129,25.7570552 C316.413906,47.2212679 331.2818,70.3607362 343.322699,94.7566462 L266.889162,94.7566462 L266.889162,22.0924335 Z M266.889162,116.534969 L353.26953,116.534969 C370.126789,157.055215 379.759509,200.611861 381.120654,245.110838 L266.889162,245.110838 L266.889162,116.534969 Z M266.889162,266.889162 L381.120654,266.889162 C379.759509,311.283436 370.231493,354.840082 353.478937,395.465031 L266.889162,395.465031 L266.889162,266.889162 Z M266.784458,489.907566 L266.784458,417.243354 L266.889162,417.243354 L343.532106,417.243354 C331.386503,441.848671 316.518609,464.988139 299.033129,486.242945 C288.562781,488.232311 277.778323,489.384049 266.784458,489.907566 Z M332.747648,477.343149 C346.04499,458.39182 357.562372,438.184049 367.195092,417.243354 L426.143149,417.243354 C400.595501,444.152147 368.660941,464.988139 332.747648,477.343149 Z M376.408998,395.465031 C392.114519,354.735378 401.014315,311.283436 402.794274,266.889162 L490.01227,266.889162 C487.813497,314.948057 471.270348,359.237628 444.466258,395.465031 L376.408998,395.465031 Z" id="Shape"></path>
        </g>
    </g>
</svg>